<svg width="68" height="16" viewBox="0 0 68 16" fill="none" xmlns="http://www.w3.org/2000/svg">
<g clip-path="url(#clip0_185_3102)">
<path d="M3.27407 0.254395H6.6321V8.67842C6.6321 9.31447 6.73004 9.87984 6.91193 10.3604C7.09383 10.8551 7.34568 11.2791 7.6535 11.6325C7.96132 11.9858 8.31111 12.2827 8.70288 12.5088C9.09465 12.735 9.50041 12.9046 9.90617 13.0035V15.7173C9.44444 15.6325 8.98272 15.4911 8.507 15.3215C8.03128 15.1519 7.58354 14.9399 7.14979 14.6714C6.71605 14.4028 6.31029 14.106 5.93251 13.7668C5.55473 13.4275 5.23292 13.0318 4.95309 12.5936C4.67325 13.0318 4.35144 13.4275 3.97366 13.7668C3.59588 14.106 3.19012 14.4169 2.75638 14.6714C2.32263 14.9258 1.86091 15.1519 1.39918 15.3215C0.937449 15.4911 0.461728 15.6184 0 15.7173V13.0035C0.419753 12.9046 0.811523 12.735 1.20329 12.5088C1.59506 12.2827 1.94486 11.9858 2.25267 11.6325C2.56049 11.2791 2.81235 10.8551 2.99424 10.3604C3.17613 9.8657 3.27407 9.30033 3.27407 8.67842V0.254395ZM11.7531 8.16959H8.05926V5.45581H11.7531V0.254395H14.9432V15.7173H11.7531V8.16959Z" fill="#00B493"/>
<path d="M17.1259 2.91164C17.1259 1.13072 18.2453 0.254395 20.4839 0.254395H29.5506C31.7893 0.254395 32.9086 1.14485 32.9086 2.91164C32.9086 4.67842 31.7893 5.56888 29.5506 5.56888H20.4839C18.2453 5.56888 17.1259 4.67842 17.1259 2.91164ZM17.1259 13.6396C17.1259 12.947 17.3498 12.4381 17.8115 12.0989C18.2732 11.7597 18.8749 11.6042 19.6444 11.6042H29.2988C29.4247 11.6042 29.5226 11.5759 29.6066 11.5335C29.6905 11.4911 29.7185 11.4063 29.7185 11.3074C29.7185 11.2085 29.6765 11.1378 29.6066 11.0954C29.5226 11.053 29.4247 11.0388 29.2988 11.0388H17.2938V9.03178H23.4222V8.26853H17.2938V6.00705H32.7407V8.26853H26.6123V9.03178H30.3901C31.1457 9.03178 31.7613 9.18726 32.223 9.51235C32.6848 9.83743 32.9086 10.3463 32.9086 11.0388C32.9086 11.7314 32.6848 12.2544 32.223 12.6078C31.7613 12.9611 31.1597 13.1307 30.3901 13.1307H20.7358C20.6099 13.1307 20.5119 13.1449 20.428 13.1873C20.344 13.2297 20.316 13.3003 20.316 13.3993C20.316 13.4982 20.358 13.583 20.428 13.6254C20.5119 13.6678 20.6099 13.6961 20.7358 13.6961H32.7407V15.7032H19.6444C18.8889 15.7032 18.2732 15.5335 17.8115 15.1802C17.3498 14.8268 17.1259 14.318 17.1259 13.6113V13.6396ZM29.1169 3.37807C29.3127 3.37807 29.4527 3.33567 29.5646 3.265C29.6765 3.19432 29.7185 3.08125 29.7185 2.91164C29.7185 2.74203 29.6625 2.64309 29.5646 2.55828C29.4667 2.47348 29.3127 2.44521 29.1169 2.44521H20.9177C20.7218 2.44521 20.5819 2.48761 20.4699 2.55828C20.358 2.62895 20.316 2.74203 20.316 2.91164C20.316 3.08125 20.372 3.18019 20.4699 3.265C20.5819 3.33567 20.7218 3.37807 20.9177 3.37807H29.1169Z" fill="#00B493"/>
<path d="M41.8074 3.90106H40.0584C40.0864 4.39576 40.1564 4.80565 40.2543 5.11661C40.3523 5.42756 40.4782 5.68198 40.6321 5.87986C40.786 6.07774 40.9539 6.20495 41.1638 6.28975C41.3737 6.37456 41.5835 6.4311 41.8074 6.4735V9.18728C41.0519 9.04594 40.3523 8.81979 39.7366 8.48057C39.121 8.14134 38.6593 7.61837 38.3654 6.9258C38.0576 7.63251 37.6099 8.18375 36.9942 8.57951C36.3786 8.97527 35.693 9.22968 34.9235 9.37103V6.65724C35.1473 6.62898 35.3572 6.5583 35.5671 6.45936C35.763 6.36042 35.9449 6.20495 36.0988 5.99293C36.2527 5.78092 36.3786 5.51237 36.4765 5.17315C36.5745 4.83392 36.6444 4.40989 36.6724 3.91519H34.9235V1.35689H36.6864V0H40.0445V1.35689H41.8074V3.90106ZM46.8444 12.7491H34.9235V10.2049H50.0346V15.9717H46.8444V12.7491ZM47.0124 6.21908H45.6971V9.18728H42.6749V0.508834H45.6971V3.5053H47.0124V0.508834H50.0346V9.18728H47.0124V6.21908Z" fill="#00B493"/>
<path d="M52.0494 12.7774C52.0494 12.1696 52.1333 11.6608 52.3152 11.2367C52.4971 10.8127 52.749 10.4876 53.0848 10.2473C53.4206 9.99291 53.8543 9.8233 54.358 9.71023C54.8617 9.59715 55.4354 9.55475 56.093 9.55475H62.4732C63.1169 9.55475 63.7045 9.61129 64.2082 9.71023C64.7119 9.8233 65.1317 9.99291 65.4815 10.2473C65.8173 10.5017 66.0831 10.8268 66.251 11.2367C66.4189 11.6466 66.5169 12.1555 66.5169 12.7774C66.5169 13.3993 66.4329 13.894 66.251 14.318C66.0691 14.742 65.8173 15.0671 65.4815 15.3074C65.1457 15.5618 64.7119 15.7314 64.2082 15.8445C63.7045 15.9576 63.1309 16 62.4732 16H56.093C55.4494 16 54.8617 15.9434 54.358 15.8445C53.8543 15.7314 53.4346 15.5618 53.0848 15.3074C52.749 15.053 52.4831 14.7279 52.3152 14.318C52.1473 13.9081 52.0494 13.3993 52.0494 12.7774ZM61.6197 3.06712H58.6115C58.6535 3.53355 58.7654 3.92931 58.9333 4.2544C59.1012 4.57949 59.3251 4.86217 59.5909 5.07419C59.8568 5.30033 60.1646 5.46995 60.5144 5.58302C60.8642 5.69609 61.228 5.7809 61.6058 5.80917V8.52295C60.6823 8.43814 59.8008 8.16959 58.9753 7.74556C58.1498 7.32154 57.4642 6.69963 56.9045 5.90811C56.3448 6.69963 55.6593 7.33567 54.8337 7.83037C54.0082 8.31094 53.1407 8.60776 52.2033 8.69256V5.97878C52.5811 5.95051 52.9449 5.86571 53.2807 5.7385C53.6165 5.61129 53.9243 5.42754 54.1901 5.17313C54.456 4.93284 54.6798 4.63602 54.8617 4.28267C55.0436 3.92931 55.1556 3.51942 55.1975 3.06712H52.1893V0.522949H61.5918V3.06712H61.6197ZM62.4593 13.4558C62.7251 13.4558 62.935 13.4134 63.0749 13.3145C63.2148 13.2297 63.2988 13.0459 63.2988 12.7774C63.2988 12.5088 63.2288 12.3251 63.0749 12.2403C62.935 12.1555 62.7251 12.0989 62.4593 12.0989H56.079C55.8132 12.0989 55.6033 12.1413 55.4634 12.2403C55.3234 12.3392 55.2395 12.5088 55.2395 12.7774C55.2395 13.0459 55.3095 13.2297 55.4634 13.3145C55.6033 13.3993 55.8132 13.4558 56.079 13.4558H62.4593ZM63.1309 0.522949H66.321V3.18019H68V5.89397H66.321V8.52295H63.1309V0.522949Z" fill="#00B493"/>
</g>
<defs>
<clipPath id="clip0_185_3102">
<rect width="68" height="16" fill="white"/>
</clipPath>
</defs>
</svg>
