<svg width="102" height="124" viewBox="0 0 102 124" fill="none" xmlns="http://www.w3.org/2000/svg">
<g clip-path="url(#clip0_3_1201)">
<path d="M89.5686 0H12.4314C5.56575 0 0 5.55445 0 12.4062V111.594C0 118.446 5.56575 124 12.4314 124H89.5686C96.4342 124 102 118.446 102 111.594V12.4062C102 5.55445 96.4342 0 89.5686 0Z" fill="#00B493"/>
<path d="M16.223 94.101H102V112.896C102 114.633 100.633 115.998 98.8921 115.998H16.223C10.1938 115.998 5.22119 111.098 5.22119 105.018C5.22119 99.0015 10.1316 94.039 16.223 94.039V94.101Z" fill="white"/>
<path d="M92.9872 52.1681C87.1444 52.1681 75.1481 45.2206 75.1481 45.2206C75.1481 45.2206 63.4004 52.1681 57.309 52.1681V0H90.128C91.6819 0 92.925 1.24062 92.925 2.7914V52.1061L92.9872 52.1681Z" fill="white"/>
</g>
<defs>
<clipPath id="clip0_3_1201">
<rect width="102" height="124" fill="white"/>
</clipPath>
</defs>
</svg>
